PathFileType	4	(X/Y/Z) abd_2kg_3.trc																										
DataRate	CameraRate	NumFrames	NumMarkers	Units	OrigDataRate	OrigDataStartFrame	OrigNumFrames																					
100	100	34	9	mm	100	118	938																					
Frame#	Time	gu			centelbow			EpL			centpxt8			centijc7			ij			ts			aa			ai		
		X1	Y1	Z1	X2	Y2	Z2	X3	Y3	Z3	X4	Y4	Z4	X5	Y5	Z5	X6	Y6	Z6	X7	Y7	Z7	X8	Y8	Z8	X9	Y9	Z9  
117	1.17	-94.462	-7.152	153.766	-140.412	-242.862	211.33	-149.544	-230.029	239.46	-46.816	-153.158	-8.669	-46.816	31.938	-8.669	0	0	0	-125.266	26.411	32.303	-126.168	26.901	151.567	-141.836	-85.751	37.851
118	1.18	-94.566	-6.489	153.387	-140.24	-241.801	212.775	-149.471	-228.752	240.774	-46.816	-153.158	-8.669	-46.816	31.938	-8.669	0	0	0	-125.013	26.493	32.091	-126.01	27.386	151.351	-141.373	-85.681	38.007
119	1.19	-94.568	-6.203	153.337	-140.054	-241.07	214.596	-149.371	-227.799	242.462	-46.816	-153.158	-8.669	-46.816	31.938	-8.669	0	0	0	-124.7	26.385	31.923	-125.754	27.683	151.179	-140.844	-85.8	38.214
120	1.2	-94.251	-6.265	153.505	-139.553	-240.643	216.742	-148.942	-227.139	244.471	-46.816	-153.158	-8.669	-46.816	31.938	-8.669	0	0	0	-124.446	26.046	31.772	-125.521	27.772	151.022	-140.333	-86.152	38.466
121	1.21	-93.688	-6.199	153.411	-138.562	-240.088	218.732	-148.011	-226.352	246.327	-46.816	-153.158	-8.669	-46.816	31.938	-8.669	0	0	0	-124.453	25.798	31.46	-125.494	27.975	150.703	-139.992	-86.423	38.586
122	1.22	-93.189	-5.554	152.91	-137.293	-238.98	220.375	-146.802	-225.021	247.837	-46.816	-153.158	-8.669	-46.816	31.938	-8.669	0	0	0	-124.657	25.904	30.966	-125.616	28.551	150.2	-139.769	-86.345	38.55
123	1.23	-92.928	-4.448	152.339	-136.123	-237.399	221.995	-145.711	-223.219	249.316	-46.816	-153.158	-8.669	-46.816	31.938	-8.669	0	0	0	-124.674	26.089	30.61	-125.569	29.24	149.833	-139.379	-86.179	38.68
124	1.24	-92.766	-3.369	151.899	-135.147	-235.781	223.821	-144.839	-221.366	250.982	-46.816	-153.158	-8.669	-46.816	31.938	-8.669	0	0	0	-124.295	25.899	30.584	-125.191	29.59	149.792	-138.693	-86.372	39.167
125	1.25	-92.546	-2.714	151.488	-134.278	-234.496	225.781	-144.084	-219.827	252.764	-46.816	-153.158	-8.669	-46.816	31.938	-8.669	0	0	0	-123.813	25.403	30.601	-124.739	29.646	149.79	-137.958	-86.859	39.704
126	1.26	-92.276	-2.636	151.061	-133.49	-233.713	227.8	-143.419	-218.777	254.592	-46.816	-153.158	-8.669	-46.816	31.938	-8.669	0	0	0	-123.575	25.011	30.312	-124.509	29.8	149.48	-137.426	-87.244	39.931
127	1.27	-91.97	-2.959	150.604	-132.713	-233.29	229.797	-142.782	-218.087	256.385	-46.816	-153.158	-8.669	-46.816	31.938	-8.669	0	0	0	-123.489	24.87	29.751	-124.399	30.216	148.895	-136.983	-87.382	39.901
128	1.28	-91.62	-3.114	149.977	-131.79	-232.706	231.575	-142.033	-217.246	257.947	-46.816	-153.158	-8.669	-46.816	31.938	-8.669	0	0	0	-123.304	24.914	29.164	-124.165	30.836	148.281	-136.404	-87.333	39.868
129	1.29	-91.309	-2.554	149.159	-130.693	-231.44	233.09	-141.153	-215.744	259.237	-46.816	-153.158	-8.669	-46.816	31.938	-8.669	0	0	0	-123.089	25.155	28.626	-123.882	31.65	147.714	-135.769	-87.086	39.883
130	1.3	-91.113	-1.47	148.523	-129.596	-229.656	234.747	-140.317	-213.737	260.652	-46.816	-153.158	-8.669	-46.816	31.938	-8.669	0	0	0	-123.001	25.53	28.119	-123.738	32.573	147.177	-135.263	-86.703	39.903
131	1.31	-90.986	-0.669	148.454	-128.733	-228.092	236.99	-139.738	-211.946	262.634	-46.816	-153.158	-8.669	-46.816	31.938	-8.669	0	0	0	-122.915	25.633	27.809	-123.669	33.213	146.834	-134.839	-86.583	40.103
132	1.32	-90.927	-0.422	148.726	-128.184	-226.998	239.606	-139.452	-210.614	264.984	-46.816	-153.158	-8.669	-46.816	31.938	-8.669	0	0	0	-122.683	25.146	27.825	-123.533	33.274	146.813	-134.391	-87.035	40.629
133	1.33	-90.96	-0.148	148.841	-127.754	-225.852	242.051	-139.241	-209.234	267.177	-46.816	-153.158	-8.669	-46.816	31.938	-8.669	0	0	0	-122.391	24.456	27.978	-123.339	33.119	146.927	-133.935	-87.684	41.279
134	1.34	-90.95	0.56	148.801	-127.138	-224.287	244.292	-138.817	-207.451	269.183	-46.816	-153.158	-8.669	-46.816	31.938	-8.669	0	0	0	-122.153	24.225	28.046	-123.15	33.383	146.958	-133.48	-87.881	41.812
135	1.35	-90.768	1.549	148.788	-126.193	-222.434	246.567	-138.058	-205.389	271.228	-46.816	-153.158	-8.669	-46.816	31.938	-8.669	0	0	0	-122.005	24.573	27.962	-122.998	34.216	146.835	-133.024	-87.506	42.191
136	1.36	-90.531	2.611	148.647	-125.066	-220.461	248.801	-137.115	-203.208	273.226	-46.816	-153.158	-8.669	-46.816	31.938	-8.669	0	0	0	-121.99	25.041	27.656	-122.917	35.195	146.487	-132.649	-87.009	42.378
137	1.37	-90.423	3.502	148.351	-124.104	-218.601	250.919	-136.33	-201.137	275.105	-46.816	-153.158	-8.669	-46.816	31.938	-8.669	0	0	0	-122.039	25.128	27.207	-122.889	35.801	145.993	-132.371	-86.886	42.431
138	1.38	-90.411	3.94	148.189	-123.51	-217.139	253.131	-135.903	-199.458	277.073	-46.816	-153.158	-8.669	-46.816	31.938	-8.669	0	0	0	-121.939	24.711	26.956	-122.799	35.888	145.696	-132.042	-87.258	42.658
139	1.39	-90.365	4.07	148.218	-123.115	-215.938	255.494	-135.666	-198.034	279.187	-46.816	-153.158	-8.669	-46.816	31.938	-8.669	0	0	0	-121.618	24.116	27.077	-122.603	35.774	145.769	-131.57	-87.803	43.224
140	1.4	-90.26	4.334	148.156	-122.639	-214.578	257.762	-135.339	-196.456	281.208	-46.816	-153.158	-8.669	-46.816	31.938	-8.669	0	0	0	-121.236	23.812	27.231	-122.367	35.923	145.877	-131.027	-88.06	43.796
141	1.41	-90.137	4.875	147.882	-122.028	-212.931	259.81	-134.873	-194.599	283.013	-46.816	-153.158	-8.669	-46.816	31.938	-8.669	0	0	0	-120.971	23.937	26.952	-122.176	36.494	145.551	-130.546	-87.891	43.936
142	1.42	-90.023	5.522	147.562	-121.426	-211.154	261.797	-134.419	-192.617	284.753	-46.816	-153.158	-8.669	-46.816	31.938	-8.669	0	0	0	-120.87	24.159	26.264	-122.085	37.182	144.812	-130.21	-87.621	43.691
143	1.43	-89.963	6.12	147.351	-120.974	-209.378	263.898	-134.115	-190.633	286.6	-46.816	-153.158	-8.669	-46.816	31.938	-8.669	0	0	0	-120.801	24.11	25.598	-122.027	37.629	144.091	-129.936	-87.612	43.496
144	1.44	-90.047	6.632	147.281	-120.721	-207.622	266.186	-134.003	-188.664	288.627	-46.816	-153.158	-8.669	-46.816	31.938	-8.669	0	0	0	-120.675	23.864	25.24	-121.953	37.898	143.672	-129.636	-87.793	43.623
145	1.45	-90.327	7.126	147.359	-120.632	-205.842	268.647	-134.041	-186.67	290.83	-46.816	-153.158	-8.669	-46.816	31.938	-8.669	0	0	0	-120.665	23.702	25.141	-122.028	38.257	143.509	-129.46	-87.887	44.013
146	1.46	-90.719	7.658	147.52	-120.595	-204.001	271.182	-134.118	-184.62	293.112	-46.816	-153.158	-8.669	-46.816	31.938	-8.669	0	0	0	-120.886	23.631	25.121	-122.351	38.699	143.424	-129.524	-87.889	44.472
147	1.47	-91.082	8.221	147.563	-120.453	-202.086	273.63	-134.083	-182.498	295.309	-46.816	-153.158	-8.669	-46.816	31.938	-8.669	0	0	0	-121.136	23.469	25.03	-122.704	39.041	143.267	-129.636	-87.978	44.853
148	1.48	-91.375	8.832	147.299	-120.122	-200.043	275.865	-133.853	-180.246	297.289	-46.816	-153.158	-8.669	-46.816	31.938	-8.669	0	0	0	-121.197	23.131	24.899	-122.86	39.225	143.065	-129.572	-88.237	45.21
149	1.49	-91.565	9.39	146.871	-119.628	-197.959	278.032	-133.466	-177.948	299.187	-46.816	-153.158	-8.669	-46.816	31.938	-8.669	0	0	0	-121.049	22.619	24.925	-122.82	39.28	143.01	-129.32	-88.659	45.765
150	1.5	-91.51	9.573	146.746	-119.049	-196.167	280.525	-133.006	-175.938	301.392	-46.816	-153.158	-8.669	-46.816	31.938	-8.669	0	0	0	-120.753	21.997	25.165	-122.656	39.259	143.162	-128.935	-89.181	46.566
